<mxfile host="app.diagrams.net" agent="Mozilla/5.0 (Windows NT 10.0; Win64; x64) AppleWebKit/537.36 (KHTML, like Gecko) Chrome/129.0.0.0 Safari/537.36" version="24.7.16">
  <diagram name="Page-1" id="jIEBpR6Z1XrXgT9Y6X6j">
    <mxGraphModel dx="1434" dy="739" grid="1" gridSize="10" guides="1" tooltips="1" connect="1" arrows="1" fold="1" page="1" pageScale="1" pageWidth="850" pageHeight="1100" math="0" shadow="0">
      <root>
        <mxCell id="0" />
        <mxCell id="1" parent="0" />
        <mxCell id="XMJZC1-GFqstn5FLzGG8-1" value="&lt;font style=&quot;font-size: 16px;&quot;&gt;GPS Reader&lt;/font&gt;" style="ellipse;whiteSpace=wrap;html=1;" vertex="1" parent="1">
          <mxGeometry x="140" y="120" width="160" height="80" as="geometry" />
        </mxCell>
        <mxCell id="XMJZC1-GFqstn5FLzGG8-2" value="&lt;font style=&quot;font-size: 16px;&quot;&gt;Navigator&lt;/font&gt;" style="ellipse;whiteSpace=wrap;html=1;" vertex="1" parent="1">
          <mxGeometry x="345" y="270" width="160" height="80" as="geometry" />
        </mxCell>
        <mxCell id="XMJZC1-GFqstn5FLzGG8-3" value="&lt;font style=&quot;font-size: 14px;&quot;&gt;Waypoints Handler&lt;/font&gt;" style="ellipse;whiteSpace=wrap;html=1;" vertex="1" parent="1">
          <mxGeometry x="560" y="120" width="160" height="80" as="geometry" />
        </mxCell>
        <mxCell id="XMJZC1-GFqstn5FLzGG8-4" value="&lt;font style=&quot;font-size: 14px;&quot;&gt;Arduino UART Handler&lt;/font&gt;" style="ellipse;whiteSpace=wrap;html=1;" vertex="1" parent="1">
          <mxGeometry x="345" y="440" width="160" height="80" as="geometry" />
        </mxCell>
        <mxCell id="XMJZC1-GFqstn5FLzGG8-5" value="&lt;font style=&quot;font-size: 15px;&quot;&gt;Arduino Mega&lt;/font&gt;" style="rounded=0;whiteSpace=wrap;html=1;" vertex="1" parent="1">
          <mxGeometry x="345" y="590" width="155" height="70" as="geometry" />
        </mxCell>
        <mxCell id="XMJZC1-GFqstn5FLzGG8-6" value="&lt;font style=&quot;font-size: 15px;&quot;&gt;Bluetooth to Control computer&lt;/font&gt;" style="rounded=0;whiteSpace=wrap;html=1;" vertex="1" parent="1">
          <mxGeometry x="670" y="280" width="160" height="60" as="geometry" />
        </mxCell>
        <mxCell id="XMJZC1-GFqstn5FLzGG8-8" value="" style="endArrow=classic;html=1;rounded=0;entryX=1;entryY=1;entryDx=0;entryDy=0;exitX=0.5;exitY=0;exitDx=0;exitDy=0;" edge="1" parent="1" source="XMJZC1-GFqstn5FLzGG8-6" target="XMJZC1-GFqstn5FLzGG8-3">
          <mxGeometry relative="1" as="geometry">
            <mxPoint x="370" y="250" as="sourcePoint" />
            <mxPoint x="470" y="250" as="targetPoint" />
          </mxGeometry>
        </mxCell>
        <mxCell id="XMJZC1-GFqstn5FLzGG8-9" value="&lt;font style=&quot;font-size: 14px;&quot;&gt;Waypoints&lt;/font&gt;" style="edgeLabel;resizable=0;html=1;;align=center;verticalAlign=middle;" connectable="0" vertex="1" parent="XMJZC1-GFqstn5FLzGG8-8">
          <mxGeometry relative="1" as="geometry" />
        </mxCell>
        <mxCell id="XMJZC1-GFqstn5FLzGG8-10" value="" style="endArrow=classic;html=1;rounded=0;entryX=1;entryY=0;entryDx=0;entryDy=0;exitX=0;exitY=1;exitDx=0;exitDy=0;" edge="1" parent="1" source="XMJZC1-GFqstn5FLzGG8-3" target="XMJZC1-GFqstn5FLzGG8-2">
          <mxGeometry relative="1" as="geometry">
            <mxPoint x="449" y="200" as="sourcePoint" />
            <mxPoint x="396" y="108" as="targetPoint" />
          </mxGeometry>
        </mxCell>
        <mxCell id="XMJZC1-GFqstn5FLzGG8-11" value="&lt;font style=&quot;font-size: 14px;&quot;&gt;Waypoints&lt;/font&gt;" style="edgeLabel;resizable=0;html=1;;align=center;verticalAlign=middle;" connectable="0" vertex="1" parent="XMJZC1-GFqstn5FLzGG8-10">
          <mxGeometry relative="1" as="geometry" />
        </mxCell>
        <mxCell id="XMJZC1-GFqstn5FLzGG8-12" value="" style="endArrow=classic;html=1;rounded=0;entryX=0;entryY=0;entryDx=0;entryDy=0;exitX=1;exitY=1;exitDx=0;exitDy=0;" edge="1" parent="1" source="XMJZC1-GFqstn5FLzGG8-1" target="XMJZC1-GFqstn5FLzGG8-2">
          <mxGeometry relative="1" as="geometry">
            <mxPoint x="425" y="200" as="sourcePoint" />
            <mxPoint x="372" y="108" as="targetPoint" />
          </mxGeometry>
        </mxCell>
        <mxCell id="XMJZC1-GFqstn5FLzGG8-13" value="&lt;span style=&quot;font-size: 14px;&quot;&gt;Longitude &amp;amp; Latitude&lt;/span&gt;" style="edgeLabel;resizable=0;html=1;;align=center;verticalAlign=middle;" connectable="0" vertex="1" parent="XMJZC1-GFqstn5FLzGG8-12">
          <mxGeometry relative="1" as="geometry" />
        </mxCell>
        <mxCell id="XMJZC1-GFqstn5FLzGG8-18" value="" style="endArrow=classic;startArrow=classic;html=1;rounded=0;exitX=0;exitY=0;exitDx=0;exitDy=0;entryX=0;entryY=1;entryDx=0;entryDy=0;" edge="1" parent="1" source="XMJZC1-GFqstn5FLzGG8-4" target="XMJZC1-GFqstn5FLzGG8-2">
          <mxGeometry width="50" height="50" relative="1" as="geometry">
            <mxPoint x="390" y="410" as="sourcePoint" />
            <mxPoint x="440" y="360" as="targetPoint" />
          </mxGeometry>
        </mxCell>
        <mxCell id="XMJZC1-GFqstn5FLzGG8-19" value="PWM" style="text;html=1;align=center;verticalAlign=middle;whiteSpace=wrap;rounded=0;fillColor=default;" vertex="1" parent="1">
          <mxGeometry x="353" y="384" width="30" height="20" as="geometry" />
        </mxCell>
        <mxCell id="XMJZC1-GFqstn5FLzGG8-23" value="" style="endArrow=classic;html=1;rounded=0;entryX=1;entryY=1;entryDx=0;entryDy=0;exitX=1;exitY=0;exitDx=0;exitDy=0;" edge="1" parent="1" source="XMJZC1-GFqstn5FLzGG8-4" target="XMJZC1-GFqstn5FLzGG8-2">
          <mxGeometry relative="1" as="geometry">
            <mxPoint x="370" y="380" as="sourcePoint" />
            <mxPoint x="470" y="380" as="targetPoint" />
          </mxGeometry>
        </mxCell>
        <mxCell id="XMJZC1-GFqstn5FLzGG8-24" value="&lt;font style=&quot;font-size: 13px;&quot;&gt;Encoder&lt;/font&gt;" style="edgeLabel;resizable=0;html=1;;align=center;verticalAlign=middle;" connectable="0" vertex="1" parent="XMJZC1-GFqstn5FLzGG8-23">
          <mxGeometry relative="1" as="geometry" />
        </mxCell>
        <mxCell id="XMJZC1-GFqstn5FLzGG8-25" value="" style="endArrow=classic;startArrow=classic;html=1;rounded=0;entryX=0;entryY=1;entryDx=0;entryDy=0;" edge="1" parent="1" target="XMJZC1-GFqstn5FLzGG8-4">
          <mxGeometry width="50" height="50" relative="1" as="geometry">
            <mxPoint x="368" y="590" as="sourcePoint" />
            <mxPoint x="275" y="476" as="targetPoint" />
          </mxGeometry>
        </mxCell>
        <mxCell id="XMJZC1-GFqstn5FLzGG8-26" value="PWM" style="text;html=1;align=center;verticalAlign=middle;whiteSpace=wrap;rounded=0;fillColor=default;" vertex="1" parent="1">
          <mxGeometry x="353" y="540" width="30" height="20" as="geometry" />
        </mxCell>
        <mxCell id="XMJZC1-GFqstn5FLzGG8-28" value="" style="endArrow=classic;html=1;rounded=0;entryX=1;entryY=1;entryDx=0;entryDy=0;exitX=0.881;exitY=0;exitDx=0;exitDy=0;exitPerimeter=0;" edge="1" parent="1" source="XMJZC1-GFqstn5FLzGG8-5" target="XMJZC1-GFqstn5FLzGG8-4">
          <mxGeometry relative="1" as="geometry">
            <mxPoint x="570" y="560" as="sourcePoint" />
            <mxPoint x="570" y="446" as="targetPoint" />
          </mxGeometry>
        </mxCell>
        <mxCell id="XMJZC1-GFqstn5FLzGG8-29" value="&lt;font style=&quot;font-size: 13px;&quot;&gt;Encoder&lt;/font&gt;" style="edgeLabel;resizable=0;html=1;;align=center;verticalAlign=middle;" connectable="0" vertex="1" parent="XMJZC1-GFqstn5FLzGG8-28">
          <mxGeometry relative="1" as="geometry" />
        </mxCell>
      </root>
    </mxGraphModel>
  </diagram>
</mxfile>
